<svg width="22" height="22" viewBox="0 0 22 22" fill="none" xmlns="http://www.w3.org/2000/svg">
<g clip-path="url(#clip0_2_91)">
<path d="M11 22C17.0751 22 22 17.0751 22 11C22 4.92487 17.0751 0 11 0C4.92487 0 0 4.92487 0 11C0 17.0751 4.92487 22 11 22Z" fill="#0052B4"/>
<path d="M11.0001 4.30435L11.3563 5.40044H12.5087L11.5763 6.07784L11.9325 7.17393L11.0001 6.49649L10.0677 7.17393L10.4238 6.07784L9.49146 5.40044H10.6439L11.0001 4.30435Z" fill="#FFDA44"/>
<path d="M6.26551 6.26545L7.29246 6.78863L8.10736 5.97377L7.92702 7.11202L8.95393 7.63525L7.81565 7.81554L7.63535 8.95387L7.11212 7.92696L5.97388 8.1073L6.78878 7.2924L6.26551 6.26545Z" fill="#FFDA44"/>
<path d="M4.30444 11L5.40053 10.6438V9.49137L6.07789 10.4238L7.17403 10.0676L6.49654 11L7.17403 11.9324L6.07789 11.5763L5.40053 12.5086V11.3562L4.30444 11Z" fill="#FFDA44"/>
<path d="M6.26551 15.7345L6.78874 14.7076L5.97388 13.8927L7.11216 14.0731L7.63531 13.0462L7.81565 14.1845L8.95389 14.3647L7.92711 14.888L8.10736 16.0262L7.29246 15.2113L6.26551 15.7345Z" fill="#FFDA44"/>
<path d="M11.0001 17.6956L10.6439 16.5996H9.49146L10.4239 15.9221L10.0677 14.8261L11.0001 15.5035L11.9325 14.8261L11.5763 15.9221L12.5087 16.5996H11.3562L11.0001 17.6956Z" fill="#FFDA44"/>
<path d="M15.7346 15.7345L14.7077 15.2114L13.8927 16.0263L14.0731 14.8879L13.0463 14.3647L14.1845 14.1845L14.3648 13.0462L14.888 14.0731L16.0262 13.8927L15.2113 14.7077L15.7346 15.7345Z" fill="#FFDA44"/>
<path d="M17.6957 11L16.5996 11.3562V12.5086L15.9222 11.5762L14.8262 11.9324L15.5036 11L14.8262 10.0676L15.9222 10.4238L16.5996 9.49137V10.6439L17.6957 11Z" fill="#FFDA44"/>
<path d="M15.7346 6.26545L15.2114 7.2924L16.0263 8.1073L14.8879 7.92692L14.3648 8.95383L14.1845 7.81554L13.0463 7.6352L14.0731 7.11202L13.8927 5.97382L14.7077 6.78868L15.7346 6.26545Z" fill="#FFDA44"/>
</g>
<defs>
<clipPath id="clip0_2_91">
<rect width="22" height="22" fill="white"/>
</clipPath>
</defs>
</svg>
