<svg width="176" height="145" viewBox="0 0 176 145" fill="none" xmlns="http://www.w3.org/2000/svg">
<g clip-path="url(#clip0_2_188)">
<path fill-rule="evenodd" clip-rule="evenodd" d="M36.57 1.71099C13.203 -0.229007 1.38603 2.14699 1.11803 8.84099C0.850034 15.535 1.51903 52.249 3.12603 118.983C2.89503 125.49 7.29303 128.386 16.319 127.668C25.346 126.951 77.626 126.248 173.161 125.558L174.939 13.594C173.945 5.99299 170.389 2.03199 164.269 1.71099C158.149 1.39099 115.583 1.39099 36.569 1.71099H36.57Z" fill="white" stroke="#2F2F2F"/>
<mask id="mask0_2_188" style="mask-type:alpha" maskUnits="userSpaceOnUse" x="10" y="27" width="111" height="105">
<path d="M120.864 85.585C120.221 79.596 116.121 74.354 110.934 71.85C105.476 69.216 98.849 70.377 93.674 67.042C93.55 66.962 93.426 66.878 93.304 66.794C93.0983 66.4964 92.9029 66.1919 92.718 65.881C89.886 61.098 89.217 55.373 87.693 50.083C86.007 44.234 83.093 39.266 78.38 35.514C73.525 31.649 67.56 29.458 61.598 28.287C50.644 26.134 38.236 26.895 28.398 32.752C23.152 35.875 18.864 40.424 15.934 45.914C12.991 51.431 10.934 58.072 10.97 64.428C10.988 67.484 11.658 70.422 13.362 72.951C14.996 75.374 17.326 77.165 19.497 79.033C23.359 82.353 24.937 86.532 24.71 91.677C23.375 121.935 53.809 131.421 57.328 131.519C60.683 131.611 63.9 130.16 66.807 128.422C70.96 125.939 74.262 122.824 76.116 118.188C77.906 113.712 78.543 108.992 83.182 106.636C88.128 104.124 93.878 104.509 99.226 104.475C104.584 104.441 110.188 103.995 114.69 100.665C119.24 97.298 121.473 91.26 120.864 85.585Z" fill="white"/>
</mask>
<g mask="url(#mask0_2_188)">
<path d="M120.864 85.585C120.221 79.596 116.121 74.354 110.934 71.85C105.476 69.216 98.849 70.377 93.674 67.042C93.55 66.962 93.426 66.878 93.304 66.794C93.0983 66.4964 92.9029 66.1919 92.718 65.881C89.886 61.098 89.217 55.373 87.693 50.083C86.007 44.234 83.093 39.266 78.38 35.514C73.525 31.649 67.56 29.458 61.598 28.287C50.644 26.134 38.236 26.895 28.398 32.752C23.152 35.875 18.864 40.424 15.934 45.914C12.991 51.431 10.934 58.072 10.97 64.428C10.988 67.484 11.658 70.422 13.362 72.951C14.996 75.374 17.326 77.165 19.497 79.033C23.359 82.353 24.937 86.532 24.71 91.677C23.375 121.935 53.809 131.421 57.328 131.519C60.683 131.611 63.9 130.16 66.807 128.422C70.96 125.939 74.262 122.824 76.116 118.188C77.906 113.712 78.543 108.992 83.182 106.636C88.128 104.124 93.878 104.509 99.226 104.475C104.584 104.441 110.188 103.995 114.69 100.665C119.24 97.298 121.473 91.26 120.864 85.585Z" fill="#C5C5C5"/>
<path fill-rule="evenodd" clip-rule="evenodd" d="M10.97 27.186H121.092V131.644H10.97V27.186Z" fill="#F5A0C5"/>
</g>
<path d="M174.303 16.105H0.708008" stroke="#2F2F2F"/>
<path fill-rule="evenodd" clip-rule="evenodd" d="M9.73002 6.68796C8.75202 6.42796 6.45502 8.30096 7.49502 10.58C8.53502 12.859 11.495 13.712 11.695 11.7C11.895 9.68696 10.708 6.94896 9.73002 6.68796ZM15.458 7.27196C14.489 7.01396 12.677 7.78196 13.708 10.04C14.738 12.298 17.673 13.143 17.871 11.149C18.069 9.15496 16.428 7.53096 15.458 7.27196ZM21.507 6.70096C20.513 6.43896 18.225 7.55596 19.281 9.84896C20.337 12.141 23.271 11.099 23.473 9.07396C23.676 7.04996 22.5 6.96396 21.507 6.70096Z" fill="#2F2F2F"/>
<path fill-rule="evenodd" clip-rule="evenodd" d="M144.648 70H117.401C115.533 87.067 115.533 95.032 117.401 93.893C120.201 92.185 158.253 94.243 159.418 93.893C160.194 93.66 160.194 85.695 159.418 70H144.648Z" fill="white" stroke="#2F2F2F"/>
<path fill-rule="evenodd" clip-rule="evenodd" d="M121.056 73.429L120.231 87.492L133.278 88.857C134.931 78.832 135.646 73.914 135.421 74.104C135.197 74.294 130.408 74.069 121.056 73.429Z" fill="white" stroke="#2F2F2F"/>
<path fill-rule="evenodd" clip-rule="evenodd" d="M125.028 76.879C124.466 76.729 123.172 77.369 123.769 78.683C124.367 79.997 126.026 79.399 126.141 78.239C126.255 77.079 125.591 77.029 125.028 76.879ZM130.951 77.736C130.389 77.586 129.095 78.226 129.692 79.54C130.29 80.854 131.949 80.257 132.064 79.096C132.179 77.936 131.514 77.886 130.951 77.736ZM127.567 80.307C127.005 80.157 125.71 80.797 126.307 82.111C126.905 83.426 128.565 82.828 128.679 81.667C128.794 80.507 128.129 80.457 127.567 80.307ZM130.105 83.736C129.543 83.586 128.249 84.226 128.846 85.54C129.444 86.854 131.103 86.257 131.218 85.096C131.332 83.936 130.667 83.886 130.105 83.736ZM124.182 83.736C123.62 83.586 122.326 84.226 122.923 85.54C123.521 86.854 125.18 86.257 125.295 85.096C125.409 83.936 124.744 83.886 124.182 83.736Z" fill="#2F2F2F"/>
<path fill-rule="evenodd" clip-rule="evenodd" d="M139.34 75.164L138.846 88.054C147.846 89.843 152.848 90.186 153.852 89.084C155.359 87.432 154.941 73.997 154.592 74.29C154.359 74.486 149.275 74.777 139.341 75.164H139.34Z" fill="white" stroke="#2F2F2F"/>
<path fill-rule="evenodd" clip-rule="evenodd" d="M146.653 80.314C145.903 80.114 144.178 80.968 144.975 82.72C145.771 84.472 147.984 83.676 148.137 82.128C148.289 80.581 147.402 80.515 146.653 80.314Z" fill="#2F2F2F"/>
<path fill-rule="evenodd" clip-rule="evenodd" d="M144.648 59H117.401C115.533 65.4 115.533 68.387 117.401 67.96C120.201 67.32 158.253 68.091 159.418 67.96C160.194 67.872 160.194 64.886 159.418 59H144.648V59Z" stroke="#2F2F2F"/>
<path fill-rule="evenodd" clip-rule="evenodd" d="M155.96 62.3C155.212 62.109 153.486 62.924 154.282 64.596C155.079 66.269 157.292 65.508 157.444 64.031C157.597 62.554 156.71 62.491 155.961 62.301L155.96 62.3Z" fill="#2F2F2F"/>
<path d="M120.23 63.497C123.178 62.875 125.79 62.875 128.068 63.497C131.484 64.429 137.891 63.489 139.872 63.497C141.852 63.505 147.642 61.657 148.154 62.487" stroke="#2F2F2F"/>
<path fill-rule="evenodd" clip-rule="evenodd" d="M146.18 47.129C127.071 45.624 117.444 45.624 117.298 47.129C117.079 49.386 114.49 55.524 117.298 54.964C120.106 54.404 158.249 55.079 159.416 54.964C160.195 54.888 160.195 52.276 159.416 47.129H146.18Z" stroke="#2F2F2F"/>
<path fill-rule="evenodd" clip-rule="evenodd" d="M155.115 49.3C154.365 49.109 152.64 49.924 153.436 51.596C154.233 53.269 156.446 52.508 156.598 51.031C156.751 49.554 155.864 49.491 155.115 49.301V49.3Z" fill="#2F2F2F"/>
<path d="M119.385 50.503C122.332 51.125 124.945 51.125 127.222 50.503C130.637 49.571 137.045 50.511 139.026 50.503C141.006 50.495 146.795 52.343 147.308 51.513" stroke="#2F2F2F"/>
<path fill-rule="evenodd" clip-rule="evenodd" d="M58.92 34.265C44.848 33.097 36.957 33.371 35.247 35.086C33.537 36.802 29.454 42.389 22.995 51.846C72.752 50.801 98.057 50.556 98.91 51.112C99.764 51.667 96.53 45.835 89.208 33.616L58.92 34.265Z" fill="white" stroke="#2F2F2F"/>
<path fill-rule="evenodd" clip-rule="evenodd" d="M21.786 51.9321C22.122 87.9171 22.27 106.079 22.228 106.417C22.167 106.926 23.519 112.523 27.604 112.752C31.689 112.982 75.069 112.854 76.317 112.986C77.566 113.118 100.601 116.113 100.819 112.392C101.038 108.67 100.489 59.0061 100.819 58.1861C101.148 57.3661 99.303 50.8201 97.214 50.9981C95.822 51.1171 70.679 51.4281 21.786 51.9321Z" fill="white" stroke="#2F2F2F"/>
<path fill-rule="evenodd" clip-rule="evenodd" d="M56.655 35.3911C56.1 35.8661 54.975 41.3271 53.281 51.7741L53.953 72.5301C64.944 73.0951 70.463 72.9501 70.509 72.0941C70.555 71.2381 70.179 64.6521 69.381 52.3361L65.978 35.6761C60.318 35.0121 57.211 34.9161 56.655 35.3911Z" fill="white" stroke="#2F2F2F"/>
<path fill-rule="evenodd" clip-rule="evenodd" d="M54.107 107.687L53.119 112.788L68.499 112.668L67.499 108.25L54.107 107.687Z" fill="#2F2F2F" stroke="#2F2F2F"/>
<path fill-rule="evenodd" clip-rule="evenodd" d="M61.043 84.2311C60.695 80.7431 58.583 78.9871 54.705 78.9631C48.889 78.9261 53.018 92.7231 54.063 97.3371C55.108 101.95 76.597 87.7331 75.606 81.5741C70.244 77.4691 65.39 78.3541 61.043 84.2311Z" fill="#2F2F2F"/>
<path d="M86.993 34.157L95.407 51.402L97.103 111.545M37.488 34.564L26.645 51.565L26.58 112.074L37.488 34.564Z" stroke="#2F2F2F"/>
<path fill-rule="evenodd" clip-rule="evenodd" d="M90.5 96.08C90.5 96.87 92.513 106.139 95.084 109.805C97.654 113.471 116.261 134.997 116.261 134.997C116.261 134.997 124.431 128.06 125.615 128.06C126.799 128.06 105.909 103.187 105.063 102.623C104.218 102.059 90.5 95.291 90.5 96.08Z" fill="white" stroke="#2F2F2F" stroke-width="1.2"/>
<path d="M100.481 108.017C100.481 108.017 119.248 130.465 120.331 131.067M92.479 102.604C94.915 100.837 96.133 99.489 96.133 98.562L92.479 102.604ZM95.084 109.805C98.665 110.807 100.456 110.38 100.456 108.525C100.456 105.742 99.542 104.229 102.223 104.229C104.011 104.229 104.741 103.524 104.413 102.114L95.084 109.805Z" stroke="#2F2F2F" stroke-width="1.2"/>
<path fill-rule="evenodd" clip-rule="evenodd" d="M116.261 134.997C116.261 134.997 115.064 136.985 116.261 137.493C117.458 138.001 120.469 136.985 121.111 137.493C121.755 138.001 120.331 139.439 120.331 140.182C120.331 140.924 119.827 142.625 121.433 142.287C123.04 141.949 123.209 141.827 123.877 142.287C124.546 142.747 125.907 144.224 128.766 143.067C131.624 141.911 133.79 141.005 133.054 139.249C132.318 137.493 130.601 135.369 130.601 135.369C130.601 135.369 133.46 133.611 132.538 132.709C131.616 131.806 131.083 131.561 129.924 131.561C128.766 131.561 128.766 130.856 128.766 130.236C128.766 129.616 130.119 127.397 128.766 127.397C127.413 127.397 126.146 127.642 125.663 127.971" fill="white"/>
<path d="M116.261 134.997C116.261 134.997 115.064 136.985 116.261 137.493C117.458 138.001 120.469 136.985 121.111 137.493C121.755 138.001 120.331 139.439 120.331 140.182C120.331 140.924 119.827 142.625 121.433 142.287C123.04 141.949 123.209 141.827 123.877 142.287C124.546 142.747 125.907 144.224 128.766 143.067C131.624 141.911 133.79 141.005 133.054 139.249C132.318 137.493 130.601 135.369 130.601 135.369C130.601 135.369 133.46 133.611 132.538 132.709C131.616 131.806 131.083 131.561 129.924 131.561C128.766 131.561 128.766 130.856 128.766 130.236C128.766 129.616 130.119 127.397 128.766 127.397C127.413 127.397 126.146 127.642 125.663 127.971" stroke="#2F2F2F" stroke-width="1.2"/>
<path d="M123.2 141.733C128.095 138.393 130.542 136.298 130.542 135.449M117.162 137.38C117.162 137.38 123.92 131.176 125.138 130.34L117.162 137.38ZM121.442 137.38C126.426 134.454 128.918 132.549 128.918 131.665L121.442 137.38Z" stroke="#2F2F2F" stroke-width="1.2"/>
</g>
<defs>
<clipPath id="clip0_2_188">
<rect width="176" height="145" fill="white"/>
</clipPath>
</defs>
</svg>
