<svg width="252" height="192" viewBox="0 0 252 192" fill="none" xmlns="http://www.w3.org/2000/svg">
<g clip-path="url(#clip0_2_665)">
<mask id="mask0_2_665" style="mask-type:alpha" maskUnits="userSpaceOnUse" x="0" y="0" width="233" height="186">
<path d="M218.334 51.6876C258.267 71.3847 206.964 177.487 120.947 185.268C34.9296 193.05 -3.78162 92.1539 0.290157 47.8922C4.36193 3.6305 59.4152 -21.7694 101.088 28.263C142.761 78.2955 178.401 31.9904 218.334 51.6876Z" fill="white"/>
</mask>
<g mask="url(#mask0_2_665)">
<path d="M218.334 51.6876C258.267 71.3847 206.964 177.487 120.947 185.268C34.9296 193.05 -3.78162 92.1539 0.290157 47.8922C4.36193 3.6305 59.4152 -21.7694 101.088 28.263C142.761 78.2955 178.401 31.9904 218.334 51.6876Z" fill="#48C7F4"/>
<path d="M232.105 -12.1382H0V198.62H232.105V-12.1382Z" fill="#B8E986"/>
</g>
<path fill-rule="evenodd" clip-rule="evenodd" d="M62.2429 32.0018C68.9684 25.2344 77.6128 18.7901 102.987 23.9649C128.361 29.1396 123.513 66.6763 142.737 90.6524C161.962 114.628 132.679 131.559 152.223 148.861C166.785 161.753 150.693 174.971 144.286 181.047C130.206 194.402 105.187 188.732 96.8626 165.267C84.7507 131.127 89.4934 133.235 82.8827 117.149C76.272 101.063 73.2515 112.862 58.0644 95.5346C42.8773 78.207 55.5175 38.7693 62.2429 32.0018Z" fill="#5BBA4A"/>
<path fill-rule="evenodd" clip-rule="evenodd" d="M88.5976 66.2511L88.4984 66.2514L88.3994 66.2519L88.3003 66.2525L88.2013 66.2533L88.1022 66.2543L88.003 66.2554L87.904 66.2568L87.8049 66.2583L87.7059 66.2601L87.6068 66.262L87.5076 66.2642L87.4086 66.2666L87.3096 66.2691L87.2105 66.2719L87.1115 66.275L87.0125 66.2782L86.9133 66.2817L86.8143 66.2854L86.7153 66.2894L86.6164 66.2936L86.5174 66.298L86.4183 66.3028L86.3193 66.3077L86.2204 66.3129L86.1214 66.3184L86.0225 66.3242L85.9235 66.3303L85.8246 66.3366L85.7257 66.3432L85.6268 66.3501L85.5279 66.3573L85.429 66.3648L85.3301 66.3726L85.2313 66.3807L85.1325 66.3891L85.0337 66.3979L84.9348 66.4069L84.8361 66.4163L84.7373 66.426L84.6386 66.4361L84.5398 66.4465L84.4411 66.4572L84.3424 66.4683L84.2438 66.4797L84.1451 66.4915L84.0465 66.5037L83.9479 66.5162L83.8492 66.5291L83.7507 66.5423L83.6522 66.556L83.5537 66.57L83.4551 66.5844L83.3567 66.5992L83.2582 66.6144L83.1596 66.63L83.1034 66.6392L83.0472 66.6489L82.9911 66.6589L82.9353 66.6693L82.8795 66.68L82.8238 66.691L82.7683 66.7023L82.7129 66.7139L82.6577 66.7257L82.6025 66.7378L82.5476 66.7502L82.4927 66.7627L82.438 66.7754L82.3834 66.7883L82.3288 66.8013L82.2744 66.8145L82.1659 66.8411L82.0579 66.8681L81.9501 66.8953L81.8428 66.9226L81.7357 66.9498L81.629 66.9767L81.5225 67.0034L81.4162 67.0295L81.3633 67.0424L81.3103 67.055L81.2573 67.0675L81.2045 67.0798L81.1516 67.0919L81.0988 67.1037L81.0461 67.1153L80.9934 67.1266L80.9407 67.1377L80.888 67.1484L80.8353 67.1589L80.7827 67.169L80.7301 67.1787L80.6775 67.1881L80.6249 67.1972L80.5723 67.2058L80.5197 67.214L80.4671 67.2218L80.4145 67.2292L80.3619 67.2361L80.315 67.2419L80.2856 67.2303L80.1962 67.195L80.1511 67.1772L80.1056 67.1596L80.0599 67.1421L80.0138 67.1248L79.9675 67.1078L79.9209 67.0911L79.8742 67.075L79.8502 67.0669L79.8266 67.0591L79.8027 67.0514L79.7789 67.0439L79.7548 67.0365L79.7309 67.0293L79.7067 67.0223L79.6824 67.0154L79.6581 67.0088L79.6336 67.0023L79.6092 66.9961L79.5845 66.9901L79.5598 66.9843L79.535 66.9788L79.5101 66.9735L79.4851 66.9685L79.46 66.9638L79.4348 66.9593L79.4095 66.9552L79.3841 66.9514L79.3586 66.9478L79.3329 66.9446L79.3073 66.9418L79.2815 66.9392L79.2555 66.9371L79.2296 66.9353L79.2035 66.9339L79.1773 66.9329L79.1509 66.9323L79.1241 66.932L79.1113 66.9322L79.096 66.9326L79.0613 66.9341L79.0181 66.9363L78.9678 66.9394L78.9118 66.9433L78.8521 66.9479L78.8209 66.9505L78.7895 66.9532L78.7578 66.9562L78.7262 66.9593L78.6948 66.9626L78.6636 66.9661L78.6329 66.9698L78.603 66.9737L78.5739 66.9778L78.5456 66.9821L78.5182 66.9868L78.4924 66.9917L78.4787 66.9946L78.4658 66.9975L78.453 67.0006L78.4398 67.004L78.4264 67.0079L78.4122 67.0124L78.397 67.0178L78.38 67.0247L78.36 67.034L78.3341 67.0485L78.306 67.0681L78.2799 67.0901L78.2502 67.1198L78.2341 67.1394L78.1927 67.1974L78.1698 67.2365L78.1491 67.2773L78.1152 67.3592L78.0875 67.4476L78.0715 67.5137L78.0589 67.581L78.0496 67.6503L78.0417 67.7516L78.0406 67.8528L78.0461 67.9534L78.0554 68.0346L78.0689 68.1123L78.0862 68.187L78.0866 68.1882L78.1117 68.2696L78.1 68.2739L78.0838 68.2823L78.0578 68.2975L78.0323 68.316L77.9917 68.3535L77.9541 68.3983L77.9193 68.4507L77.8829 68.5196L77.8514 68.5961L77.8249 68.6793L77.8039 68.7682L77.7887 68.8614L77.7795 68.9576L77.7764 69.0551L77.7796 69.1549L77.7892 69.2528L77.805 69.3476L77.8268 69.4378L77.8505 69.5121L77.8781 69.5807L77.9095 69.6431L77.9191 69.6603L77.9328 69.6836L77.9464 69.7054L77.9602 69.7268L77.9743 69.7476L77.988 69.7667L78.0018 69.7854L78.016 69.8035L78.0297 69.8205L78.0439 69.8373L78.0581 69.8534L78.0717 69.8683L78.0857 69.883L78.0998 69.8972L78.1137 69.9107L78.1277 69.9238L78.1417 69.9364L78.1553 69.9482L78.1693 69.9598L78.1834 69.9712L78.1972 69.982L78.2109 69.9923L78.2249 70.0024L78.2387 70.0122L78.2525 70.0214L78.2663 70.0306L78.2803 70.0394L78.2942 70.0479L78.3079 70.056L78.3216 70.0638L78.3356 70.0716L78.3494 70.079L78.3632 70.0862L78.3771 70.0931L78.3908 70.0999L78.4046 70.1063L78.4185 70.1127L78.4325 70.1189L78.4462 70.1247L78.4606 70.1307L78.4878 70.1415L78.5155 70.1518L78.543 70.1615L78.5707 70.1706L78.5983 70.1792L78.626 70.1872L78.6536 70.1948L78.6811 70.2019L78.7085 70.2087L78.7359 70.215L78.7632 70.2209L78.7904 70.2265L78.8173 70.2317L78.8443 70.2367L78.871 70.2413L78.8976 70.2457L78.924 70.2498L78.9501 70.2537L78.976 70.2574L79.0019 70.2609L79.0521 70.2673L79.1011 70.2732L79.1487 70.2787L79.1946 70.2838L79.2384 70.2886L79.2801 70.2934L79.3192 70.2982L79.356 70.3031L79.3726 70.3055L79.3888 70.3079L79.4039 70.3104L79.4181 70.313L79.4313 70.3155L79.4432 70.318L79.4539 70.3205L79.465 70.3233L79.508 70.3347L79.5526 70.3463L79.5972 70.3578L79.642 70.3692L79.731 70.3915L79.8202 70.4132L79.9093 70.4343L79.9985 70.455L80.0876 70.4751L80.1767 70.4947L80.2657 70.5139L80.3548 70.5327L80.4437 70.551L80.5328 70.569L80.6218 70.5866L80.7107 70.6038L80.7996 70.6208L80.8884 70.6374L80.9772 70.6537L81.066 70.6698L81.1547 70.6856L81.2436 70.7013L81.3322 70.7167L81.4209 70.732L81.5979 70.7621L81.775 70.7918L81.9517 70.8212L82.1282 70.8506L82.3045 70.88L82.3542 70.8885L82.4036 70.8972L82.453 70.9062L82.5023 70.9155L82.5518 70.925L82.6012 70.9348L82.6505 70.9448L82.7 70.9551L82.7493 70.9657L82.7987 70.9764L82.8481 70.9874L82.8974 70.9987L82.9468 71.0101L82.9962 71.0218L83.0455 71.0336L83.0948 71.0457L83.1442 71.0579L83.1936 71.0703L83.243 71.0829L83.2923 71.0957L83.3417 71.1086L83.3912 71.1218L83.4404 71.135L83.4897 71.1484L83.5887 71.1756L83.6875 71.2034L83.7863 71.2316L83.8853 71.2602L83.9843 71.2891L84.0833 71.3184L84.1824 71.3479L84.2814 71.3776L84.4801 71.4374L84.6789 71.4973L84.7784 71.5272L84.8781 71.557L84.9778 71.5866L85.0777 71.616L85.1777 71.645L85.2778 71.6738L85.3781 71.7022L85.4785 71.7301L85.5788 71.7575L85.6292 71.771L85.6796 71.7844L85.7299 71.7976L85.7805 71.8107L85.8309 71.8235L85.8813 71.8362L85.9319 71.8488L85.9824 71.8611L86.0331 71.8733L86.0838 71.8852L86.1344 71.8969L86.1853 71.9085L86.236 71.9198L86.2868 71.9308L86.3378 71.9417L86.3887 71.9522L86.4396 71.9626L86.4907 71.9727L86.5418 71.9825L86.5929 71.992L86.6441 72.0013L86.6953 72.0103L86.7465 72.019L86.7978 72.0274L86.8493 72.0354L86.9007 72.0432L86.9521 72.0507L87.0037 72.0577L87.0552 72.0645L87.1069 72.071L87.1586 72.077L87.2104 72.0828L87.2622 72.0881L87.314 72.0931L87.3659 72.0977L87.418 72.1019L87.47 72.1058L87.5221 72.1092L87.5743 72.1122L87.6265 72.1148L87.6788 72.117L87.7311 72.1187L87.7835 72.12L87.836 72.1209L87.8885 72.1213H87.9411L87.9938 72.1207L88.0465 72.1197L88.0993 72.1183L88.1521 72.1163L88.2051 72.1138L88.258 72.1109L88.3111 72.1074L88.3642 72.1034L88.4175 72.0989L88.4707 72.0938L88.5239 72.0883L88.5773 72.0821L88.6308 72.0754L88.6843 72.0682L88.7379 72.0603L88.7917 72.0519L88.8206 72.0471L88.8497 72.0418L88.8786 72.0362L88.9075 72.0302L88.9362 72.0239L88.965 72.0173L88.9936 72.0103L89.0222 72.003L89.0506 71.9954L89.0791 71.9874L89.1076 71.9791L89.1358 71.9706L89.1641 71.9617L89.1922 71.9525L89.2202 71.9431L89.2482 71.9334L89.2801 71.9321L89.3263 71.9303L89.3723 71.9281L89.4184 71.9256L89.4644 71.9228L89.5103 71.9197L89.5561 71.9162L89.602 71.9124L89.6476 71.9082L89.6932 71.9037L89.7388 71.8988L89.7842 71.8936L89.8296 71.8881L89.8749 71.8822L89.9201 71.8759L89.9653 71.8693L90.0102 71.8624L90.0552 71.855L90.1001 71.8473L90.1448 71.8393L90.1894 71.8309L90.234 71.8221L90.2784 71.8129L90.3228 71.8033L90.3669 71.7934L90.4111 71.7831L90.4551 71.7724L90.4989 71.7613L90.5427 71.7498L90.5863 71.7379L90.6134 71.7303L90.6402 71.7226L90.6671 71.7147L90.6939 71.7066L90.7207 71.6984L90.7474 71.69L90.774 71.6814L90.8007 71.6727L90.8273 71.6638L90.8538 71.6547L90.8804 71.6455L90.9068 71.6361L90.9332 71.6266L90.9595 71.6169L90.9858 71.6071L91.0121 71.5971L91.0383 71.587L91.0644 71.5768L91.0906 71.5663L91.1167 71.5558L91.1427 71.5451L91.169 71.5342L91.2206 71.5123L91.2723 71.4897L91.3239 71.4666L91.3753 71.443L91.4265 71.4189L91.4776 71.3944L91.5286 71.3694L91.5794 71.344L91.63 71.3181L91.6806 71.2918L91.7309 71.2652L91.7812 71.2381L91.8313 71.2107L91.8813 71.1829L91.9312 71.1548L91.981 71.1263L92.0306 71.0975L92.0801 71.0685L92.1295 71.0392L92.1788 71.0096L92.228 70.9797L92.2772 70.9495L92.3261 70.9192L92.375 70.8886L92.4239 70.8578L92.4726 70.8269L92.5212 70.7957L92.5698 70.7644L92.6183 70.7329L92.6667 70.7014L92.7152 70.6695L92.8116 70.6059L92.9079 70.5417L93.0039 70.4774L93.0998 70.4128L93.1956 70.3483L93.3868 70.2195L93.4822 70.1554L93.5775 70.0917L93.6731 70.0283L93.7206 69.997L93.7683 69.9657L93.8296 69.9258L93.9169 69.8687L93.9691 69.8344L94.0257 69.7968L94.0865 69.7563L94.1506 69.7132L94.2175 69.6677L94.2863 69.6205L94.3217 69.5961L94.3572 69.5713L94.3929 69.5463L94.4288 69.521L94.4649 69.4953L94.501 69.4695L94.5369 69.4435L94.5728 69.4173L94.6087 69.3909L94.6441 69.3646L94.6793 69.3381L94.7141 69.3117L94.7485 69.2852L94.7824 69.2587L94.8156 69.2323L94.8484 69.2059L94.8805 69.1795L94.9119 69.1532L94.9425 69.1271L94.9721 69.1013L94.9873 69.0877L95.0018 69.0745L95.0161 69.0613L95.0302 69.0481L95.0443 69.0349L95.058 69.0216L95.0719 69.0079L95.0854 68.9943L95.0989 68.9804L95.1123 68.9664L95.1254 68.9522L95.1388 68.9374L95.1522 68.9221L95.1656 68.9062L95.1789 68.8899L95.1927 68.8725L95.2068 68.8536L95.2214 68.8332L95.2363 68.8112L95.2522 68.7862L95.2686 68.7584L95.2865 68.7257L95.3036 68.6912L95.3154 68.665L95.3259 68.6402L95.3371 68.6117L95.3482 68.5808L95.3588 68.5489L95.3704 68.5099L95.3822 68.4647L95.3929 68.4165L95.4034 68.3598L95.4122 68.2968L95.4183 68.2341L95.4379 68.2458L95.4619 68.2598L95.4743 68.2668L95.4862 68.2734L95.499 68.2802L95.5146 68.2879L95.5368 68.2974L95.5515 68.302L95.5885 68.3105L95.6207 68.3127L95.6518 68.3102L95.7023 68.2966L95.7507 68.2716L95.7903 68.2416L95.828 68.204L95.8634 68.1591L95.8964 68.1075L95.9328 68.0355L95.9641 67.9555L95.9819 67.8959L95.9962 67.8829L96.04 67.8292L96.0799 67.7653L96.1153 67.6922L96.1459 67.6111L96.1708 67.5232L96.1899 67.43L96.2028 67.3329L96.2094 67.2334V67.1331L96.2029 67.0336L96.19 66.9364L96.171 66.8432L96.1461 66.7553L96.1156 66.6741L96.0802 66.601L96.0403 66.537L95.9965 66.4832L95.9497 66.4405L95.9004 66.4095L95.8496 66.3906L95.7979 66.3843L95.6999 66.3842L95.6021 66.384L95.5042 66.3836L95.4065 66.3831L95.2105 66.3817L95.0145 66.3797L94.8185 66.3773L94.6222 66.3744L94.4259 66.3711L94.2295 66.3674L94.0328 66.3633L93.8361 66.359L93.6394 66.3544L93.4425 66.3496L93.2455 66.3445L93.0484 66.3393L92.6539 66.3284L91.8641 66.3062L91.4688 66.2953L91.2711 66.2901L91.0732 66.2851L90.8754 66.2802L90.6774 66.2757L90.4795 66.2713L90.2816 66.2674L90.0835 66.2637L89.8855 66.2605L89.6873 66.2576L89.4893 66.2552L89.2912 66.2534L89.0931 66.252L88.9939 66.2515L88.8948 66.2512L88.7958 66.251H88.6967L88.5976 66.2511ZM89.496 69.9815L89.4712 69.9904L89.4465 69.999L89.4218 70.0075L89.3971 70.0158L89.3723 70.024L89.3476 70.032L89.3229 70.0398L89.2983 70.0475L89.2737 70.0549L89.249 70.0622L89.2243 70.0692L89.2186 70.0708L89.1861 70.0713L89.1407 70.0717L89.0952 70.0718L89.0495 70.0718L89.0039 70.0715L88.9581 70.071L88.9123 70.0703L88.8664 70.0694L88.8205 70.0682L88.7744 70.0668L88.7284 70.0652L88.6821 70.0634L88.6686 70.0629L88.7091 70.0598L88.7523 70.0564L88.7954 70.0529L88.8385 70.0493L88.8816 70.0456L88.9248 70.0417L88.9679 70.0378L89.011 70.0337L89.0542 70.0295L89.0973 70.0251L89.1404 70.0207L89.1836 70.0161L89.2267 70.0114L89.2698 70.0065L89.313 70.0016L89.3561 69.9965L89.3992 69.9912L89.4424 69.9859L89.4855 69.9804L89.5065 69.9777L89.496 69.9815Z" fill="#2F2F2F"/>
<path d="M64.376 55.5379C65.8615 51.8591 69.0057 48.9106 72.8998 53.3479" stroke="#2F2F2F" stroke-width="1.5" stroke-linecap="round"/>
<path d="M101.952 52.6744C103.166 50.589 106.456 49.605 107.438 50.3291C108.168 50.8676 109.926 52.3793 111.102 54.6657" stroke="#2F2F2F" stroke-width="1.5" stroke-linecap="round"/>
<path fill-rule="evenodd" clip-rule="evenodd" d="M103.303 61.7707C100.911 60.8995 100.766 59.8942 101.32 58.3709C101.669 57.4123 101.966 56.7397 103.311 56.67C104.103 56.6289 105.767 56.8674 106.653 57.1903C107.552 57.5176 107.796 57.9659 108.379 58.5163C109.349 59.431 110.326 60.575 109.981 61.526C109.427 63.0493 105.695 62.642 103.303 61.7707Z" fill="#39782D"/>
<path fill-rule="evenodd" clip-rule="evenodd" d="M71.275 61.7707C73.6666 60.8995 73.812 59.8942 73.2581 58.3709C72.9095 57.4123 72.6121 56.7397 71.267 56.67C70.4748 56.6289 68.8112 56.8674 67.9248 57.1903C67.0264 57.5176 66.7823 57.9659 66.199 58.5163C65.2294 59.431 64.2516 60.575 64.5974 61.526C65.1513 63.0493 68.8834 62.642 71.275 61.7707Z" fill="#39782D"/>
<path fill-rule="evenodd" clip-rule="evenodd" d="M98.9136 72.8747C89.0841 74.7184 81.9838 78.7083 77.6127 84.8445C71.056 94.0488 65.1364 108.037 70.7993 120.703C76.4622 133.369 86.3011 146.745 105.583 145.585C124.865 144.424 140.657 129.316 141.418 114.631C142.178 99.9463 135.344 75.4358 113.172 73.4979C108.235 72.9326 103.482 72.7249 98.9136 72.8747Z" fill="white" stroke="#2F2F2F"/>
<path fill-rule="evenodd" clip-rule="evenodd" d="M84.3929 77.5066C86.1276 78.9785 86.64 80.3221 85.9302 81.5372C84.8655 83.3598 78.4205 90.0528 78.474 96.3113C78.5276 102.57 78.8498 105.395 81.8348 107.664C84.8197 109.932 88.1053 114.246 87.3215 116.515C86.5378 118.783 83.51 122.55 85.2386 124.242C86.9672 125.933 88.685 125.462 89.6408 127.875C90.5966 130.287 91.6595 135.675 92.7548 137.306C93.85 138.936 97.8979 144.1 97.8657 141.736C97.8336 139.371 96.8136 137.842 97.8657 136.587C98.9179 135.331 105.604 128.591 105.589 127.875C105.575 127.158 107.164 124.221 104.834 123.168C102.504 122.115 99.4979 117.803 97.8657 117.205C96.2335 116.606 93.399 114.56 91.842 114.996C90.2851 115.431 88.8341 115.512 88.5771 114.175C88.3202 112.839 87.8799 110.527 87.3215 109.926C86.7632 109.325 86.0226 106.777 86.8922 106.112C87.7618 105.446 89.716 103.361 90.7254 103.639C91.7347 103.917 92.9159 103.395 93.4956 102.542C94.0754 101.689 96.5344 99.9165 97.4899 99.876C98.4455 99.8356 102.48 99.6737 102.605 96.7064C102.73 93.7391 103.342 90.1948 101.42 89.5061C99.4979 88.8174 98.4027 88.3314 96.8243 88.3719C95.2459 88.4123 93.5199 88.4833 94.5171 86.5693C95.5143 84.6553 96.6022 84.5843 95.677 83.5109C94.7518 82.4375 93.6568 81.2728 92.7548 81.1715C91.8527 81.0703 89.2438 79.3489 89.2008 78.1943C89.172 77.4246 88.9642 76.3714 88.5771 75.0347" fill="white"/>
<path d="M84.3929 77.5066C86.1276 78.9785 86.64 80.3221 85.9302 81.5372C84.8655 83.3598 78.4205 90.0528 78.474 96.3113C78.5276 102.57 78.8498 105.395 81.8348 107.664C84.8197 109.932 88.1053 114.246 87.3215 116.515C86.5378 118.783 83.51 122.55 85.2386 124.242C86.9672 125.933 88.685 125.462 89.6408 127.875C90.5966 130.287 91.6595 135.675 92.7548 137.306C93.85 138.936 97.8979 144.1 97.8657 141.736C97.8336 139.371 96.8136 137.842 97.8657 136.587C98.9179 135.331 105.604 128.591 105.589 127.875C105.575 127.158 107.164 124.221 104.834 123.168C102.504 122.115 99.4979 117.803 97.8657 117.205C96.2335 116.606 93.399 114.56 91.842 114.996C90.2851 115.431 88.8341 115.512 88.5771 114.175C88.3202 112.839 87.8799 110.527 87.3215 109.926C86.7632 109.325 86.0226 106.777 86.8922 106.112C87.7618 105.446 89.716 103.361 90.7254 103.639C91.7347 103.917 92.9159 103.395 93.4956 102.542C94.0754 101.689 96.5344 99.9165 97.4899 99.876C98.4455 99.8356 102.48 99.6737 102.605 96.7064C102.73 93.7391 103.342 90.1948 101.42 89.5061C99.4979 88.8174 98.4027 88.3314 96.8243 88.3719C95.2459 88.4123 93.5199 88.4833 94.5171 86.5693C95.5143 84.6553 96.6022 84.5843 95.677 83.5109C94.7518 82.4375 93.6568 81.2728 92.7548 81.1715C91.8527 81.0703 89.2438 79.3489 89.2008 78.1943C89.172 77.4246 88.9642 76.3714 88.5771 75.0347" stroke="#2F2F2F"/>
<path fill-rule="evenodd" clip-rule="evenodd" d="M105.079 79.4482C103.943 81.1321 103.624 82.4339 104.122 83.3538C104.869 84.7337 104.876 85.657 105.079 86.5807C105.282 87.5043 105.946 87.8711 106.701 88.2051C107.457 88.5392 108.182 87.6377 108.271 86.5807C108.331 85.876 108.331 84.8004 108.271 83.3538C108.15 81.9816 107.787 81.1731 107.182 80.9282C106.577 80.6833 105.876 80.19 105.079 79.4482Z" fill="white" stroke="#2F2F2F"/>
<path fill-rule="evenodd" clip-rule="evenodd" d="M120.708 75.0347C120.43 75.1565 121.844 77.4034 120.163 78.3387C118.482 79.274 117.955 78.5829 117.454 79.6604C116.952 80.738 115.596 83.3036 115.341 83.6931C115.086 84.0827 114.6 84.3268 115.341 84.7437C116.083 85.1605 117.524 86.7898 117.974 87.1087C118.425 87.4275 120.013 89.3998 120.708 89.3388C121.404 89.2777 122.69 89.2272 122.47 90.3962C122.25 91.5652 121.624 92.592 122.053 93.2326C122.482 93.8731 122.679 94.646 123.073 94.8695C123.467 95.093 123.93 95.5402 123.791 96.2418C123.652 96.9434 122.818 98.4072 123.073 98.9359C123.328 99.4646 123.501 100.237 123.791 100.39C124.081 100.542 124.73 99.9527 125.113 99.2715C125.496 98.5903 126.538 97.0247 127.373 97.0247C128.208 97.0247 129.541 96.1404 129.274 94.8695C129.008 93.5986 127.918 91.3824 128.451 90.3962C128.984 89.4101 129.935 88.0377 131.036 88.2714C132.137 88.5051 135.082 87.7556 134.827 87.1087" fill="white"/>
<path d="M120.708 75.0347C120.43 75.1565 121.844 77.4034 120.163 78.3387C118.482 79.274 117.955 78.5829 117.454 79.6604C116.952 80.738 115.596 83.3036 115.341 83.6931C115.086 84.0827 114.6 84.3268 115.341 84.7437C116.083 85.1605 117.524 86.7898 117.974 87.1087C118.425 87.4275 120.013 89.3998 120.708 89.3388C121.404 89.2777 122.69 89.2272 122.47 90.3962C122.25 91.5652 121.624 92.592 122.053 93.2326C122.482 93.8731 122.679 94.646 123.073 94.8695C123.467 95.093 123.93 95.5402 123.791 96.2418C123.652 96.9434 122.818 98.4072 123.073 98.9359C123.328 99.4646 123.501 100.237 123.791 100.39C124.081 100.542 124.73 99.9527 125.113 99.2715C125.496 98.5903 126.538 97.0247 127.373 97.0247C128.208 97.0247 129.541 96.1404 129.274 94.8695C129.008 93.5986 127.918 91.3823 128.451 90.3962C128.984 89.4101 129.935 88.0377 131.036 88.2714C132.137 88.5051 135.082 87.7556 134.827 87.1087" stroke="#2F2F2F"/>
<path fill-rule="evenodd" clip-rule="evenodd" d="M139.263 98.207C135.043 100.026 132.502 100.788 131.638 100.492C130.344 100.048 125.704 100.663 125.188 102.692C124.672 104.721 124.684 109.204 126.492 110.284C128.301 111.365 132.108 110.775 132.933 111.255C133.759 111.736 135.434 109.754 135.551 112.476C135.668 115.198 135.736 119.752 135.551 121.803C135.367 123.853 136.123 129.036 134.768 130.207" fill="white"/>
<path d="M139.263 98.207C135.043 100.026 132.502 100.788 131.638 100.492C130.344 100.048 125.704 100.663 125.188 102.692C124.672 104.721 124.684 109.204 126.492 110.284C128.301 111.365 132.108 110.775 132.933 111.255C133.759 111.736 135.434 109.754 135.551 112.476C135.668 115.198 135.736 119.752 135.551 121.803C135.367 123.853 136.123 129.036 134.768 130.207" stroke="#2F2F2F"/>
<path fill-rule="evenodd" clip-rule="evenodd" d="M85.1052 87.1726C85.362 86.6129 86.4672 85.1417 88.421 82.7588L85.1052 87.1726Z" fill="white"/>
<path d="M85.1052 87.1726C85.362 86.6129 86.4672 85.1417 88.421 82.7588" stroke="#2F2F2F"/>
<path fill-rule="evenodd" clip-rule="evenodd" d="M85.1052 90.4826C85.1313 90.2869 87.3418 88.4479 91.7368 84.9653L85.1052 90.4826Z" fill="white"/>
<path d="M85.1052 90.4826C85.1313 90.2869 87.3418 88.4479 91.7368 84.9653" stroke="#2F2F2F"/>
<path fill-rule="evenodd" clip-rule="evenodd" d="M81.7895 98.207C81.9821 98.1662 85.2979 95.2237 91.7369 89.3794L81.7895 98.207Z" fill="white"/>
<path d="M81.7895 98.207C81.9821 98.1662 85.2979 95.2237 91.7369 89.3794" stroke="#2F2F2F"/>
<path fill-rule="evenodd" clip-rule="evenodd" d="M82.8947 99.3102C83.1351 99.3465 86.4509 97.1397 92.8421 92.6899L82.8947 99.3102Z" fill="white"/>
<path d="M82.8947 99.3102C83.1351 99.3465 86.4509 97.1397 92.8421 92.6899" stroke="#2F2F2F"/>
<path fill-rule="evenodd" clip-rule="evenodd" d="M86.2105 103.724L96.1579 94.8965L86.2105 103.724Z" fill="white"/>
<path d="M86.2105 103.724L96.1579 94.8965" stroke="#2F2F2F"/>
<path fill-rule="evenodd" clip-rule="evenodd" d="M95.0526 99.3103L99.4737 94.8965L95.0526 99.3103Z" fill="white"/>
<path d="M95.0526 99.3103L99.4737 94.8965" stroke="#2F2F2F"/>
<path fill-rule="evenodd" clip-rule="evenodd" d="M88.4234 120.27C88.3535 120.365 89.8264 119.264 92.8421 116.965L88.4234 120.27Z" fill="white"/>
<path d="M88.4234 120.27C88.3535 120.365 89.8264 119.264 92.8421 116.965" stroke="#2F2F2F"/>
<path fill-rule="evenodd" clip-rule="evenodd" d="M88.421 123.586L93.9473 119.172L88.421 123.586Z" fill="white"/>
<path d="M88.421 123.586L93.9473 119.172" stroke="#2F2F2F"/>
<path fill-rule="evenodd" clip-rule="evenodd" d="M91.7368 125.793L97.2631 120.276L91.7368 125.793Z" fill="white"/>
<path d="M91.7368 125.793L97.2631 120.276" stroke="#2F2F2F"/>
<path fill-rule="evenodd" clip-rule="evenodd" d="M93.9474 129.104L98.3684 124.69L93.9474 129.104Z" fill="white"/>
<path d="M93.9474 129.104L98.3684 124.69" stroke="#2F2F2F"/>
<path fill-rule="evenodd" clip-rule="evenodd" d="M96.1579 131.31C96.3242 131.272 98.1663 129.801 101.684 126.896L96.1579 131.31Z" fill="white"/>
<path d="M96.1579 131.31C96.3242 131.272 98.1663 129.801 101.684 126.896" stroke="#2F2F2F"/>
<path fill-rule="evenodd" clip-rule="evenodd" d="M95.0526 134.621C95.193 134.512 96.6667 133.041 99.4737 130.207L95.0526 134.621Z" fill="white"/>
<path d="M95.0526 134.621C95.193 134.512 96.6667 133.041 99.4737 130.207" stroke="#2F2F2F"/>
<path fill-rule="evenodd" clip-rule="evenodd" d="M118.263 83.862C118.52 83.382 120.362 81.9107 123.789 79.4482L118.263 83.862Z" fill="white"/>
<path d="M118.263 83.862C118.52 83.382 120.362 81.9107 123.789 79.4482" stroke="#2F2F2F"/>
<path fill-rule="evenodd" clip-rule="evenodd" d="M119.368 87.1725L124.895 81.6553L119.368 87.1725Z" fill="white"/>
<path d="M119.368 87.1725L124.895 81.6553" stroke="#2F2F2F"/>
<path fill-rule="evenodd" clip-rule="evenodd" d="M121.579 87.1726L126 83.8623L121.579 87.1726Z" fill="white"/>
<path d="M121.579 87.1726L126 83.8623" stroke="#2F2F2F"/>
<path fill-rule="evenodd" clip-rule="evenodd" d="M124.895 89.3791L129.316 84.9653L124.895 89.3791Z" fill="white"/>
<path d="M124.895 89.3791L129.316 84.9653" stroke="#2F2F2F"/>
<path fill-rule="evenodd" clip-rule="evenodd" d="M124.895 92.6899L126 91.5864L124.895 92.6899Z" fill="white"/>
<path d="M124.895 92.6899L126 91.5864" stroke="#2F2F2F"/>
<path fill-rule="evenodd" clip-rule="evenodd" d="M126 104.827L129.316 101.517L126 104.827Z" fill="white"/>
<path d="M126 104.827L129.316 101.517" stroke="#2F2F2F"/>
<path fill-rule="evenodd" clip-rule="evenodd" d="M128.211 108.138L134.842 102.621L128.211 108.138Z" fill="white"/>
<path d="M128.211 108.138L134.842 102.621" stroke="#2F2F2F"/>
<path fill-rule="evenodd" clip-rule="evenodd" d="M133.737 109.241L138.158 104.828L133.737 109.241Z" fill="white"/>
<path d="M133.737 109.241L138.158 104.828" stroke="#2F2F2F"/>
<path fill-rule="evenodd" clip-rule="evenodd" d="M135.947 110.345L139.263 109.241L135.947 110.345Z" fill="white"/>
<path d="M135.947 110.345L139.263 109.241" stroke="#2F2F2F"/>
<path fill-rule="evenodd" clip-rule="evenodd" d="M138.158 113.655L139.263 110.345L138.158 113.655Z" fill="white"/>
<path d="M138.158 113.655L139.263 110.345" stroke="#2F2F2F"/>
<path fill-rule="evenodd" clip-rule="evenodd" d="M138.158 115.862C138.972 115.043 139.336 114.68 139.251 114.773L138.158 115.862Z" fill="white"/>
<path d="M138.158 115.862C138.972 115.043 139.336 114.68 139.251 114.773" stroke="#2F2F2F"/>
<path d="M123.37 98.0053C124.994 100.537 127.457 101.425 130.761 100.67C135.717 99.5362 135.022 94.6367 138.099 94.6367C141.176 94.6367 142.946 96.0986 143.681 97.6796C144.417 99.2606 148.927 101.699 149.744 98.5375C150.288 96.4294 149.373 95.3606 146.999 95.3308" stroke="#2F2F2F" stroke-width="2" stroke-linecap="round"/>
<path d="M85.615 96.7178C85.3085 97.2377 81.0311 101.899 78.1098 99.4091C75.1884 96.9195 72.8952 91.5275 69.3259 94.6367C65.7566 97.7459 61.7484 101.931 59.5051 100.418C57.2618 98.9059 56.3911 97.1742 57.1422 94.8701" stroke="#2F2F2F" stroke-width="2" stroke-linecap="round"/>
<path fill-rule="evenodd" clip-rule="evenodd" d="M221.597 165.194C220.966 179.188 220.444 186.942 220.031 188.454C219.41 190.723 222.413 191.6 223.852 190.273C225.29 188.946 225.985 186.548 225.042 183.359C224.1 180.171 223.43 171.78 223.852 170.003C224.274 168.227 225.241 164.103 225.067 163.311" fill="white"/>
<path d="M221.597 165.194C220.966 179.188 220.444 186.942 220.031 188.454C219.41 190.723 222.413 191.6 223.852 190.273C225.29 188.946 225.985 186.548 225.042 183.359C224.1 180.171 223.43 171.78 223.852 170.003C224.274 168.227 225.241 164.103 225.067 163.311" stroke="#2F2F2F" stroke-linecap="round" stroke-linejoin="round"/>
<path fill-rule="evenodd" clip-rule="evenodd" d="M220.062 75.0569C214.838 75.5523 209.464 81.0382 209.705 88.8664C209.946 96.6945 215.365 104.773 210.885 103.187C206.405 101.6 196.939 102.884 199.011 110.703C201.082 118.521 203.997 124.068 205.659 124.368C207.321 124.668 194.314 123.018 192.098 132.486C189.882 141.953 190.387 155.619 210.885 154.419C210.957 156.197 202.84 163.993 209.705 166.842C216.57 169.691 221.772 164.807 222.326 163.908C222.881 163.008 230.275 166.357 233.334 161.78C236.393 157.203 235.863 152.234 233.334 149.557C230.805 146.88 241.741 149.814 244.679 144.309C247.618 138.805 253.808 132.336 249.304 128.138C244.799 123.94 241.499 120.03 234.563 121.31C227.626 122.591 242.125 112.404 241.138 108.223C240.151 104.041 236.104 96.8226 226.517 101.835C225.723 102.521 230.636 91.5406 229.432 86.9959C228.227 82.4513 225.287 74.5615 220.062 75.0569Z" fill="white" stroke="#2F2F2F" stroke-linecap="round" stroke-linejoin="round"/>
<path d="M215.526 88.2759C218.084 92.0241 219.294 94.0559 219.156 94.3714C219.018 94.6869 220.019 117.667 222.158 163.31" stroke="#2F2F2F" stroke-linecap="round" stroke-linejoin="round"/>
<path d="M223.263 87.1724C222.885 87.5029 221.411 90.0776 218.842 94.8965" stroke="#2F2F2F" stroke-linecap="round" stroke-linejoin="round"/>
<path d="M208.895 109.242C208.939 109.81 218.655 122.253 219.947 121.331" stroke="#2F2F2F" stroke-linecap="round" stroke-linejoin="round"/>
<path d="M211.105 113.655C210.854 113.814 209.38 114.55 206.684 115.862" stroke="#2F2F2F" stroke-linecap="round" stroke-linejoin="round"/>
<path d="M221.053 119.173C227.309 111.417 230.625 107.003 231 105.931" stroke="#2F2F2F" stroke-linecap="round" stroke-linejoin="round"/>
<path d="M226.579 110.345C226.845 110.236 232.225 108.747 233.21 109.412" stroke="#2F2F2F" stroke-linecap="round" stroke-linejoin="round"/>
<path d="M221.053 136.884C220.485 136.895 203.514 136.375 202.533 138.293C201.552 140.212 197.902 145.967 197.842 146.759" stroke="#2F2F2F" stroke-linecap="round" stroke-linejoin="round"/>
<path d="M201.158 139.035C201.082 138.865 199.457 137.749 198.947 136.828" stroke="#2F2F2F" stroke-linecap="round" stroke-linejoin="round"/>
<path d="M221.053 137.931C232.328 134.688 238.592 131.746 239.842 129.104" stroke="#2F2F2F" stroke-linecap="round" stroke-linejoin="round"/>
<path d="M234.316 132.415C234.601 132.334 240.107 136.809 240.947 137.931" stroke="#2F2F2F" stroke-linecap="round" stroke-linejoin="round"/>
<path d="M221.053 152.276L214.421 160" stroke="#2F2F2F" stroke-linecap="round" stroke-linejoin="round"/>
<path d="M222.158 152.276C226.558 154.509 228.765 156.159 228.779 157.225C228.793 158.292 228.793 159.584 228.779 161.103" stroke="#2F2F2F" stroke-linecap="round" stroke-linejoin="round"/>
<path d="M229.895 157.25C229.992 157.226 230.729 157.226 232.105 157.25" stroke="#2F2F2F" stroke-linecap="round" stroke-linejoin="round"/>
<path d="M213.868 162.207V164.414" stroke="#2F2F2F" stroke-linecap="round" stroke-linejoin="round"/>
<path d="M214.421 160C214.34 160.011 213.604 160.379 212.211 161.103" stroke="#2F2F2F" stroke-linecap="round" stroke-linejoin="round"/>
<path fill-rule="evenodd" clip-rule="evenodd" d="M28.1442 5.64896C27.3037 6.21745 26.8942 7.00618 26.646 7.69563C26.3231 8.5931 26.3231 9.79488 26.646 10.771C27.2827 12.6951 28.6403 14.3057 30.5054 16.6131C31.4357 17.764 33.5907 19.6451 35.2996 21.1497C36.7303 22.4092 37.3524 23.264 38.2764 23.778C38.7612 24.0476 40.0123 25.6455 40.4618 25.3189C41.7082 24.4133 42.6777 21.3597 43.7121 19.9078C46.0106 16.6814 47.2901 13.0941 47.6944 9.70994C47.9772 7.34306 48.3832 6.27631 48.0667 4.94471C46.0739 -3.43989 38.2764 7.69563 37.2371 10.9502C35.2996 8.21969 30.9236 3.76919 28.1442 5.64896Z" fill="white" stroke="#2F2F2F" stroke-linecap="round"/>
<path fill-rule="evenodd" clip-rule="evenodd" d="M54.6113 21.7717C54.0617 22.1371 53.7939 22.6442 53.6317 23.0874C53.4205 23.6643 52.7892 24.832 53.6317 27.133C54.4742 29.4341 60.295 34.0862 60.8992 34.4166C61.2161 34.59 62.3712 34.6266 62.6651 34.4166C63.48 33.8344 64.7232 32.6698 65.3996 31.7364C66.9024 29.6623 70.3989 25.0644 69.0652 21.7717C66.9751 16.6117 61.2362 23.0874 60.5566 25.1796C59.2898 23.4243 56.4286 20.5632 54.6113 21.7717Z" fill="white" stroke="#2F2F2F" stroke-linecap="round"/>
<path fill-rule="evenodd" clip-rule="evenodd" d="M189.045 105.931C183.46 106.372 172.289 114.064 184.645 121.621C197 129.179 201.179 112.702 197.844 109.821C194.509 106.941 194.55 106.831 189.045 105.931Z" fill="white" stroke="#2F2F2F"/>
<path fill-rule="evenodd" clip-rule="evenodd" d="M188.012 121.702C180.288 123.317 171.983 126.499 173.772 134.15C175.562 141.802 190.366 144.798 196.844 142.89C203.322 140.981 204.897 131.636 201.921 128.265C198.945 124.894 195.736 120.087 188.012 121.702Z" fill="white" stroke="#2F2F2F"/>
<path fill-rule="evenodd" clip-rule="evenodd" d="M190.465 142.352C182.738 142.582 170.335 146.096 170.216 154.204C170.097 162.313 171.819 169.378 177.797 170.795C183.775 172.212 202.38 173.664 204.835 168.615C207.289 163.566 213.029 158.411 210.456 153.006C207.883 147.601 198.191 142.122 190.465 142.352Z" fill="white" stroke="#2F2F2F"/>
<path fill-rule="evenodd" clip-rule="evenodd" d="M189.712 188.501C184.454 188.847 187.892 120.347 187.913 118.127C187.934 115.908 190.719 177.692 191.015 178.831C191.31 179.97 191.519 190.193 189.712 188.501Z" fill="#2F2F2F" stroke="#2F2F2F"/>
<path d="M180.158 154.483C180.486 154.701 183.433 156.908 189 161.104" stroke="#2F2F2F"/>
<path d="M191.211 162.207C191.635 161.8 194.583 159.593 200.053 155.586" stroke="#2F2F2F"/>
<path d="M182.368 132.414C182.608 132.571 184.818 134.042 189 136.828" stroke="#2F2F2F"/>
<path d="M189 136.828C193.872 132.905 196.451 131.074 196.737 131.335" stroke="#2F2F2F"/>
<path d="M184.579 114.104L188.154 118.069L191.21 113.655" stroke="#2F2F2F"/>
</g>
<defs>
<clipPath id="clip0_2_665">
<rect width="252" height="192" fill="white"/>
</clipPath>
</defs>
</svg>
