<svg width="124" height="33" viewBox="0 0 124 33" fill="none" xmlns="http://www.w3.org/2000/svg">
<g clip-path="url(#clip0_2_37)">
<path fill-rule="evenodd" clip-rule="evenodd" d="M45.5069 12.7003C45.5069 14.0126 45.1431 15.3542 42.446 15.3542H39.7943V10.0007H42.3817C45.1516 10.0007 45.5069 11.4435 45.5069 12.7003ZM42.2956 7.74637H37.2209V22.4543H39.7943V17.5634H42.4677C48.1449 17.5634 48.1449 14.2788 48.1449 12.7003C48.1449 11.3452 48.1449 7.74637 42.2956 7.74637Z" fill="black"/>
<path fill-rule="evenodd" clip-rule="evenodd" d="M57.1285 17.1232V17.3645C57.1285 19.3241 55.9681 20.4943 54.0247 20.4943C52.4953 20.4943 51.6527 19.9377 51.6527 18.9268C51.6527 18.1905 52.0569 17.7163 54.1221 17.4724L57.1285 17.1232ZM54.3476 10.4861C50.9883 10.4861 49.4236 11.873 49.4236 14.8513V14.9606L51.868 14.9357V14.8287C51.868 13.0017 52.8679 12.6273 54.369 12.6273C56.5368 12.6273 57.0463 13.5595 57.1241 15.0706L53.7566 15.4229C50.4782 15.7533 49.0793 16.8082 49.0793 18.9494C49.0793 21.2434 50.7109 22.613 53.4437 22.613C55.5688 22.613 57.0859 21.7595 57.731 20.8557L58.1655 22.4545H59.5944V15.7571C59.5944 12.9794 59.1929 10.4861 54.3476 10.4861Z" fill="black"/>
<path fill-rule="evenodd" clip-rule="evenodd" d="M66.4641 10.4861C61.8786 10.4861 60.9162 13.7834 60.9162 16.5496C60.9162 20.5728 62.7971 22.613 66.507 22.613C69.7378 22.613 71.517 20.9017 71.517 17.7951V17.6866H68.9745L68.9659 17.7849C68.8042 19.581 68.0736 20.313 66.4426 20.313C64.4132 20.313 63.4681 19.1103 63.4681 16.5267C63.4681 13.8974 64.3995 12.6727 66.3997 12.6727C68.0387 12.6727 68.8062 13.4828 68.9659 15.3816L68.9739 15.4805H71.517V15.372C71.517 12.2214 69.7227 10.4861 66.4641 10.4861Z" fill="black"/>
<path fill-rule="evenodd" clip-rule="evenodd" d="M83.1476 10.6446H79.6346L75.6278 15.0349V6.22934H73.119V22.4544H75.6278V17.412L80.1285 22.4544H83.5714L77.4179 16.2339L83.1476 10.6446Z" fill="black"/>
<path fill-rule="evenodd" clip-rule="evenodd" d="M90.2023 10.4861C88.5678 10.4861 87.4243 10.938 86.7971 11.83V6.2294H84.3315V22.4545H86.7965L86.8403 15.8477C86.8403 13.7423 87.2467 12.7404 89.5566 12.7404C91.7846 12.7404 92.1443 13.6564 92.1443 15.8477V22.4545H94.631V16.0739C94.631 12.7199 93.8781 10.4861 90.2023 10.4861Z" fill="black"/>
<path fill-rule="evenodd" clip-rule="evenodd" d="M98.728 15.4676C98.8834 13.4997 99.7669 12.582 101.501 12.582C102.347 12.582 103.008 12.829 103.465 13.3162C104.049 13.9397 104.176 14.8184 104.175 15.4676H98.728ZM104.177 18.7655C104.001 19.5272 103.547 20.5396 101.652 20.5396C99.8582 20.5396 98.868 19.5539 98.7069 17.6088H106.74L106.747 17.5093C106.933 15.0839 106.476 13.1675 105.423 11.9672C104.561 10.9844 103.314 10.4862 101.716 10.4862C97.9919 10.4862 96.1038 12.5186 96.1038 16.5268C96.1038 20.5653 97.9993 22.6128 101.738 22.6128C105.808 22.6128 106.65 20.2254 106.79 18.8022L106.802 18.6827H104.196L104.177 18.7655Z" fill="black"/>
<path fill-rule="evenodd" clip-rule="evenodd" d="M108.435 22.4545H110.944V6.22914H108.435V22.4545Z" fill="black"/>
<path fill-rule="evenodd" clip-rule="evenodd" d="M121.327 16.5722C121.327 18.8583 120.821 20.381 118.353 20.381C115.911 20.381 115.421 18.9237 115.421 16.5722C115.421 14.2452 115.93 12.6953 118.417 12.6953C120.832 12.6953 121.327 14.2452 121.327 16.5722ZM119.041 10.4861C116.367 10.4861 115.259 11.5277 114.835 12.15L114.404 10.6447H112.976V26.9829H115.442V21.2463C115.926 21.8481 116.959 22.6128 119.084 22.6128C122.237 22.6128 123.836 20.5803 123.836 16.5722C123.836 12.5906 122.178 10.4861 119.041 10.4861Z" fill="black"/>
<path fill-rule="evenodd" clip-rule="evenodd" d="M13.5823 0L0.000610352 8.25L13.5823 16.5L27.1641 8.25L13.5823 0Z" fill="#3900C0"/>
<path fill-rule="evenodd" clip-rule="evenodd" d="M20.7028 13.9631C20.7028 18.1009 17.5145 21.4552 13.5819 21.4552C9.64919 21.4552 6.46095 18.1009 6.46095 13.9631C6.46095 9.82557 9.64919 6.47123 13.5819 6.47123C17.5145 6.47123 20.7028 9.82557 20.7028 13.9631Z" fill="white"/>
<path fill-rule="evenodd" clip-rule="evenodd" d="M27.1637 24.75V8.25L13.5818 16.5V33L27.1637 24.75Z" fill="#3B61FF"/>
<path fill-rule="evenodd" clip-rule="evenodd" d="M13.5819 16.5L1.52588e-05 8.25V24.75L13.5819 33V16.5Z" fill="#48C7F4"/>
</g>
<defs>
<clipPath id="clip0_2_37">
<rect width="124" height="33" fill="white"/>
</clipPath>
</defs>
</svg>
