<svg width="18" height="12" viewBox="0 0 18 12" fill="none" xmlns="http://www.w3.org/2000/svg">
<path d="M0 6.5C0 5.67157 0.671573 5 1.5 5H14.5C15.3284 5 16 5.67157 16 6.5C16 7.32843 15.3284 8 14.5 8H1.5C0.671573 8 0 7.32843 0 6.5Z" fill="#454545"/>
<path d="M0 10.5C0 9.67157 0.671573 9 1.5 9H14.5C15.3284 9 16 9.67157 16 10.5C16 11.3284 15.3284 12 14.5 12H1.5C0.671573 12 0 11.3284 0 10.5Z" fill="#454545"/>
<path d="M0 2.5C0 1.67157 0.671573 1 1.5 1H14.5C15.3284 1 16 1.67157 16 2.5C16 3.32843 15.3284 4 14.5 4H1.5C0.671573 4 0 3.32843 0 2.5Z" fill="#454545"/>
<path d="M0 6.5C0 5.67157 0.671573 5 1.5 5H14.5C15.3284 5 16 5.67157 16 6.5C16 7.32843 15.3284 8 14.5 8H1.5C0.671573 8 0 7.32843 0 6.5Z" fill="#454545"/>
</svg>
